<svg width="42" height="56" viewBox="0 0 42 56" fill="none" xmlns="http://www.w3.org/2000/svg">
<g clip-path="url(#clip0_69_89)">
<path d="M18.4078 54.6C12.6984 47.5781 0 30.5594 0 21C0 9.40187 9.40187 0 21 0C32.5938 0 42 9.40187 42 21C42 30.5594 29.2031 47.5781 23.5922 54.6C22.2469 56.2734 19.7531 56.2734 18.4078 54.6ZM21 28C24.8609 28 28 24.8609 28 21C28 17.1391 24.8609 14 21 14C17.1391 14 14 17.1391 14 21C14 24.8609 17.1391 28 21 28Z" fill="#26439E"/>
</g>
<defs>
<clipPath id="clip0_69_89">
<rect width="42" height="56" fill="white"/>
</clipPath>
</defs>
</svg>
