<svg width="20" height="20" viewBox="0 0 20 20" fill="none" xmlns="http://www.w3.org/2000/svg">
<path d="M9.20609 2.87244C8.88109 2.22285 8.20192 1.69744 7.36776 1.79035C6.62151 1.87327 5.51359 2.15077 4.75817 3.06077C3.98275 3.99535 3.69359 5.45285 4.289 7.6366C4.92484 9.96619 5.869 12.2629 7.04275 14.1158C8.20776 15.9554 9.64276 17.4279 11.289 17.9924C12.7448 18.4916 13.8582 18.2833 14.6703 17.7349C15.4536 17.2062 15.8836 16.4108 16.1061 15.8599C16.3553 15.2433 16.1911 14.6012 15.8661 14.1279L14.6673 12.3845C14.4025 11.9993 14.0213 11.709 13.5795 11.5563C13.1377 11.4036 12.6585 11.3964 12.2123 11.5358L10.5557 12.0537C10.5033 12.0716 10.4469 12.0738 10.3934 12.0599C10.3398 12.0461 10.2915 12.0168 10.2544 11.9758C9.51692 11.112 8.69067 9.90744 8.46609 8.68827C8.45898 8.65571 8.46386 8.62168 8.47984 8.59244C8.72359 8.18285 9.14276 7.71869 9.56026 7.31244C10.2673 6.6241 10.5353 5.52994 10.0686 4.59744L9.20609 2.87244Z" fill="#26439E"/>
</svg>
