<svg width="224" height="41" viewBox="0 0 224 41" fill="none" xmlns="http://www.w3.org/2000/svg">
<g clip-path="url(#clip0_155_337)">
<path d="M12.2652 37.8833C1.91991 22.8795 0 21.3408 0 15.8287C0 8.27816 6.11971 2.15845 13.6702 2.15845C21.2208 2.15845 27.3405 8.27816 27.3405 15.8287C27.3405 21.3408 25.4206 22.8764 15.0752 37.8773C14.9181 38.1035 14.7087 38.2885 14.4647 38.4164C14.2208 38.5444 13.9496 38.6115 13.6741 38.6121C13.3986 38.6127 13.1271 38.5467 12.8826 38.4198C12.6381 38.293 12.4279 38.1089 12.2698 37.8833L12.2668 37.8773L12.2652 37.8833Z" fill="url(#paint0_angular_155_337)"/>
<g filter="url(#filter0_i_155_337)">
<path d="M24.2225 19.4261H17.2675V26.3811H10.3125V19.4261H3.35742V12.4711H10.3125V5.51605H17.2675V12.4711H24.2225" fill="url(#paint1_angular_155_337)"/>
</g>
</g>
<path d="M43.353 4.79226V15.6709H52.4703V4.79226H58.0305V32.6968H52.4703V20.3332H43.353V32.6968H37.7928V4.79226H43.353ZM60.7728 19.5734C60.7728 18.1229 61.0261 16.8221 61.5326 15.6709C62.0391 14.5197 62.7529 13.5527 63.6738 12.7699C64.5948 11.9641 65.6999 11.354 66.9892 10.9395C68.3016 10.5021 69.752 10.2834 71.3407 10.2834C72.9293 10.2834 74.3683 10.5021 75.6576 10.9395C76.9469 11.354 78.052 11.9641 78.973 12.7699C79.8939 13.5527 80.6076 14.5197 81.1142 15.6709C81.6207 16.8221 81.8739 18.1229 81.8739 19.5734V23.9939C81.8739 25.4444 81.6207 26.7452 81.1142 27.8964C80.6076 29.0476 79.8939 30.0146 78.973 30.7974C78.052 31.5802 76.9469 32.1788 75.6576 32.5932C74.3683 33.0076 72.9293 33.2148 71.3407 33.2148C69.752 33.2148 68.3016 33.0076 66.9892 32.5932C65.6999 32.1788 64.5948 31.5802 63.6738 30.7974C62.7529 30.0146 62.0391 29.0476 61.5326 27.8964C61.0261 26.7452 60.7728 25.4444 60.7728 23.9939V19.5734ZM66.0222 23.614C66.0222 25.4329 66.5057 26.7337 67.4727 27.5165C68.4627 28.2993 69.752 28.6907 71.3407 28.6907C72.9523 28.6907 74.2186 28.2993 75.1395 27.5165C76.0605 26.7337 76.521 25.4329 76.521 23.614V19.8842C76.521 18.0884 76.0605 16.8106 75.1395 16.0508C74.2186 15.268 72.9523 14.8766 71.3407 14.8766C69.752 14.8766 68.4627 15.268 67.4727 16.0508C66.5057 16.8106 66.0222 18.0884 66.0222 19.8842V23.614ZM88.784 25.4789C88.807 26.1236 88.9336 26.6531 89.1639 27.0675C89.3941 27.482 89.6934 27.8043 90.0618 28.0345C90.4532 28.2878 90.9021 28.4605 91.4087 28.5526C91.9152 28.6447 92.4562 28.6907 93.0318 28.6907C93.5614 28.6907 94.0794 28.6562 94.5859 28.5871C95.1155 28.5411 95.5759 28.4374 95.9673 28.2763C96.3817 28.1151 96.7041 27.8849 96.9343 27.5856C97.1876 27.2863 97.3027 26.8949 97.2797 26.4114C97.2566 25.8588 96.9573 25.3983 96.3817 25.03C95.8062 24.6616 95.0809 24.3393 94.206 24.063C93.3311 23.7637 92.3526 23.4989 91.2705 23.2687C90.2114 23.0154 89.1869 22.7276 88.1969 22.4053C86.7924 21.9448 85.7794 21.2426 85.1578 20.2986C84.5592 19.3316 84.2483 18.2035 84.2253 16.9142C84.2023 15.8781 84.421 14.9456 84.8815 14.1168C85.342 13.2879 85.9636 12.5972 86.7464 12.0447C87.5292 11.4691 88.4271 11.0316 89.4401 10.7323C90.4762 10.433 91.5698 10.2834 92.721 10.2834C94.0333 10.2834 95.2421 10.433 96.3472 10.7323C97.4754 11.0316 98.4539 11.4806 99.2827 12.0792C100.112 12.6778 100.779 13.4376 101.286 14.3585C101.792 15.2795 102.08 16.3731 102.149 17.6394H96.9343C96.7501 16.7645 96.3242 16.0738 95.6565 15.5673C94.9888 15.0608 94.0449 14.819 92.8246 14.842C91.8346 14.8651 91.0288 15.0377 90.4071 15.3601C89.8085 15.6824 89.5092 16.2465 89.5092 17.0523C89.5092 17.4667 89.6589 17.8351 89.9582 18.1574C90.2575 18.4798 90.7985 18.7676 91.5813 19.0208C92.4562 19.2971 93.4117 19.5273 94.4478 19.7115C95.4838 19.8957 96.5084 20.2065 97.5214 20.644C98.143 20.9203 98.7647 21.2541 99.3863 21.6455C100.008 22.0139 100.561 22.4513 101.044 22.9578C101.528 23.4413 101.907 23.9939 102.184 24.6155C102.483 25.2141 102.633 25.8703 102.633 26.5841C102.633 27.9424 102.379 29.0476 101.873 29.8994C101.366 30.7513 100.676 31.419 99.8007 31.9025C98.9489 32.409 97.9358 32.7544 96.7616 32.9386C95.6105 33.1227 94.3672 33.2148 93.0318 33.2148C91.7885 33.2148 90.6028 33.0882 89.4747 32.8349C88.3465 32.5817 87.345 32.1558 86.4701 31.5571C85.5952 30.9816 84.893 30.1987 84.3635 29.2087C83.8339 28.2187 83.5461 26.9755 83.5001 25.4789H88.784ZM105.177 39.9492V11.0777H109.978L110.219 12.4246C110.91 11.8029 111.693 11.3079 112.568 10.9395C113.443 10.5481 114.41 10.3524 115.469 10.3524C117.011 10.3524 118.381 10.5827 119.578 11.0432C120.776 11.4806 121.777 12.1137 122.583 12.9426C123.412 13.7484 124.033 14.7384 124.448 15.9126C124.862 17.0638 125.07 18.3646 125.07 19.8151V23.7176C125.07 26.6416 124.252 28.9555 122.618 30.6592C121.006 32.363 118.6 33.2148 115.4 33.2148C114.341 33.2148 113.397 33.0767 112.568 32.8004C111.762 32.5241 111.037 32.1558 110.392 31.6953V39.9492H105.177ZM115.192 14.9111C113.581 14.9111 112.384 15.3946 111.601 16.3616C110.841 17.3286 110.438 18.6755 110.392 20.4022V23.0269C110.392 24.8227 110.772 26.2157 111.532 27.2057C112.314 28.1957 113.535 28.6907 115.192 28.6907C116.781 28.6907 117.932 28.2533 118.646 27.3784C119.36 26.4804 119.717 25.1336 119.717 23.3377V20.2296C119.717 18.4107 119.36 17.0753 118.646 16.2235C117.932 15.3486 116.781 14.9111 115.192 14.9111ZM126.842 19.5734C126.842 18.1229 127.095 16.8221 127.602 15.6709C128.108 14.5197 128.822 13.5527 129.743 12.7699C130.664 11.9641 131.769 11.354 133.058 10.9395C134.371 10.5021 135.821 10.2834 137.41 10.2834C138.998 10.2834 140.437 10.5021 141.727 10.9395C143.016 11.354 144.121 11.9641 145.042 12.7699C145.963 13.5527 146.677 14.5197 147.183 15.6709C147.69 16.8221 147.943 18.1229 147.943 19.5734V23.9939C147.943 25.4444 147.69 26.7452 147.183 27.8964C146.677 29.0476 145.963 30.0146 145.042 30.7974C144.121 31.5802 143.016 32.1788 141.727 32.5932C140.437 33.0076 138.998 33.2148 137.41 33.2148C135.821 33.2148 134.371 33.0076 133.058 32.5932C131.769 32.1788 130.664 31.5802 129.743 30.7974C128.822 30.0146 128.108 29.0476 127.602 27.8964C127.095 26.7452 126.842 25.4444 126.842 23.9939V19.5734ZM132.091 23.614C132.091 25.4329 132.575 26.7337 133.542 27.5165C134.532 28.2993 135.821 28.6907 137.41 28.6907C139.021 28.6907 140.288 28.2993 141.209 27.5165C142.13 26.7337 142.59 25.4329 142.59 23.614V19.8842C142.59 18.0884 142.13 16.8106 141.209 16.0508C140.288 15.268 139.021 14.8766 137.41 14.8766C135.821 14.8766 134.532 15.268 133.542 16.0508C132.575 16.8106 132.091 18.0884 132.091 19.8842V23.614ZM164.419 15.9472L155.993 19.3662V32.6968H150.64V11.0777H155.302L155.751 13.9096L164.419 10.7669V15.9472ZM175.308 3.82527V11.3885H179.418V15.9126H175.308V25.3062C175.308 25.7667 175.331 26.1927 175.378 26.5841C175.424 26.9524 175.527 27.2863 175.688 27.5856C175.873 27.8849 176.149 28.1151 176.517 28.2763C176.886 28.4374 177.404 28.518 178.071 28.518H179.798V33.0767H177.208C175.803 33.0767 174.641 32.904 173.72 32.5587C172.799 32.2133 172.062 31.7413 171.51 31.1427C170.957 30.5441 170.566 29.8189 170.335 28.967C170.105 28.1381 169.99 27.2172 169.99 26.2042V15.9126H166.226V11.3885H169.99V3.82527H175.308ZM181.039 26.5495C181.039 25.3523 181.201 24.3047 181.523 23.4068C181.845 22.4859 182.352 21.7146 183.043 21.0929C183.756 20.4713 184.677 20.0108 185.805 19.7115C186.957 19.3892 188.361 19.228 190.019 19.228H195.303V17.7775C195.303 16.9947 194.969 16.304 194.301 15.7054C193.633 15.0838 192.678 14.773 191.435 14.773C190.882 14.773 190.376 14.796 189.915 14.842C189.455 14.8881 189.04 14.9917 188.672 15.1529C188.326 15.314 188.016 15.5443 187.739 15.8436C187.486 16.1429 187.29 16.5458 187.152 17.0523H182.006C182.306 14.9341 183.238 13.2649 184.804 12.0447C186.369 10.8014 188.591 10.2143 191.469 10.2834C194.416 10.3294 196.661 11.0316 198.204 12.39C199.769 13.7484 200.552 15.8205 200.552 18.6064V32.6968H195.821L195.613 30.5556C194.692 31.6377 193.645 32.3515 192.471 32.6968C191.296 33.0422 189.938 33.2148 188.395 33.2148C187.336 33.2148 186.358 33.0882 185.46 32.8349C184.562 32.5817 183.779 32.1788 183.112 31.6262C182.467 31.0967 181.96 30.406 181.592 29.5541C181.224 28.7252 181.039 27.7237 181.039 26.5495ZM189.57 28.5871C190.03 28.5641 190.583 28.472 191.227 28.3108C191.895 28.1727 192.528 27.9309 193.127 27.5856C193.725 27.2402 194.232 26.7913 194.646 26.2387C195.084 25.6631 195.303 24.9494 195.303 24.0975V23.5449H190.295C188.798 23.5449 187.751 23.7522 187.152 24.1666C186.554 24.581 186.254 25.3178 186.254 26.3768C186.254 26.8603 186.358 27.2517 186.565 27.551C186.795 27.8503 187.072 28.0806 187.394 28.2417C187.739 28.4029 188.096 28.5065 188.465 28.5526C188.856 28.5986 189.224 28.6101 189.57 28.5871ZM204.201 32.6968V3.82527H209.553V32.6968H204.201Z" fill="url(#paint2_linear_155_337)"/>
<defs>
<filter id="filter0_i_155_337" x="3.35742" y="5.51605" width="20.8652" height="21.039" filterUnits="userSpaceOnUse" color-interpolation-filters="sRGB">
<feFlood flood-opacity="0" result="BackgroundImageFix"/>
<feBlend mode="normal" in="SourceGraphic" in2="BackgroundImageFix" result="shape"/>
<feColorMatrix in="SourceAlpha" type="matrix" values="0 0 0 0 0 0 0 0 0 0 0 0 0 0 0 0 0 0 127 0" result="hardAlpha"/>
<feOffset dy="0.521627"/>
<feGaussianBlur stdDeviation="0.0869379"/>
<feComposite in2="hardAlpha" operator="arithmetic" k2="-1" k3="1"/>
<feColorMatrix type="matrix" values="0 0 0 0 0 0 0 0 0 0 0 0 0 0 0 0 0 0 0.25 0"/>
<feBlend mode="normal" in2="shape" result="effect1_innerShadow_155_337"/>
</filter>
<radialGradient id="paint0_angular_155_337" cx="0" cy="0" r="1" gradientUnits="userSpaceOnUse" gradientTransform="translate(13.6702 20.3853) rotate(90) scale(18.2268 13.6702)">
<stop stop-color="#26439E"/>
<stop offset="1" stop-color="#001147"/>
</radialGradient>
<radialGradient id="paint1_angular_155_337" cx="0" cy="0" r="1" gradientUnits="userSpaceOnUse" gradientTransform="translate(13.79 15.9486) rotate(-90.4523) scale(10.4329)">
<stop stop-color="#55B445"/>
<stop offset="1" stop-color="#55B445" stop-opacity="0.73"/>
</radialGradient>
<linearGradient id="paint2_linear_155_337" x1="-46.2867" y1="20.5" x2="134.184" y2="20.5" gradientUnits="userSpaceOnUse">
<stop stop-color="#03154D"/>
<stop offset="1" stop-color="#244199"/>
</linearGradient>
<clipPath id="clip0_155_337">
<rect width="27.3405" height="36.454" fill="white" transform="translate(0 2.15845)"/>
</clipPath>
</defs>
</svg>
